<svg width="9" height="9" viewBox="0 0 9 9" fill="none" xmlns="http://www.w3.org/2000/svg">
<g clip-path="url(#clip0_323_1076)">
<path d="M4.50049 0.00537109C5.13126 0.00542513 5.64307 0.517168 5.64307 1.14795V3.35791H7.85205C8.48283 3.35791 8.99457 3.86972 8.99463 4.50049C8.99463 5.1313 8.48287 5.64307 7.85205 5.64307H5.64307V7.85205C5.64307 8.48283 5.13126 8.99457 4.50049 8.99463C3.86967 8.99463 3.35791 8.48287 3.35791 7.85205V5.64307H1.14795C0.517135 5.64307 0.00537107 5.1313 0.00537109 4.50049C0.00542531 3.86972 0.517168 3.35791 1.14795 3.35791H3.35791V1.14795C3.35791 0.517135 3.86967 0.00537104 4.50049 0.00537109Z" fill="#363636"/>
</g>
<defs>
<clipPath id="clip0_323_1076">
<rect width="9" height="9" fill="white"/>
</clipPath>
</defs>
</svg>
