<svg width="26" height="26" viewBox="0 0 26 26" fill="none" xmlns="http://www.w3.org/2000/svg">
<g clip-path="url(#clip0_323_1086)">
<mask id="mask0_323_1086" style="mask-type:alpha" maskUnits="userSpaceOnUse" x="-1" y="-1" width="28" height="28">
<rect x="-0.0219727" y="-0.0219727" width="26.0439" height="26.0439" fill="#363636"/>
</mask>
<g mask="url(#mask0_323_1086)">
<path d="M3.03418 21.5941L3.23482 18.4694C3.23482 18.0957 3.30613 17.7376 3.44876 17.3953C3.59139 17.0529 3.79647 16.749 4.06399 16.4835L12.5699 7.69001L12.0922 7.23293C11.4516 6.61999 11.4485 5.59755 12.0854 4.98074C12.6956 4.38968 13.6662 4.39426 14.2709 4.99106L15.3171 6.02364C16.28 5.05073 18.1231 3.00807 19.7636 3.00932C21.4042 3.00932 22.9588 4.46168 22.9588 6.02366C23.1084 7.84106 20.9756 9.7494 20.0025 10.7127L21.0495 11.801C21.6377 12.4125 21.6283 13.3822 21.0283 13.9822C20.4163 14.5941 19.4228 14.5897 18.8162 13.9725L18.3378 13.4856L9.49977 21.9638C9.23428 22.2313 8.93036 22.4364 8.58802 22.579C8.24567 22.7216 7.88762 22.7929 7.51387 22.7929L4.43368 22.9936C4.05346 22.9936 3.72515 22.8554 3.44876 22.579C3.17237 22.3026 3.03418 21.9743 3.03418 21.5941ZM5.83318 20.1946L7.84449 20.3574L16.9555 11.4026L14.4674 9.28771L5.65191 18.2059L5.83318 20.1946Z" fill="#363636"/>
</g>
</g>
<defs>
<clipPath id="clip0_323_1086">
<rect width="26" height="26" fill="white"/>
</clipPath>
</defs>
</svg>
