<svg width="29" height="29" viewBox="0 0 29 29" fill="none" xmlns="http://www.w3.org/2000/svg">
<g clip-path="url(#clip0_323_1077)">
<path d="M1.69423 13.6063L5.34039 11.7669C6.00549 11.4313 6.7908 11.9147 6.7908 12.6597L6.7908 16.3382C6.7908 17.0832 6.00554 17.5666 5.34044 17.2311L1.69428 15.3919C0.961451 15.0223 0.961422 13.976 1.69423 13.6063Z" fill="#363636"/>
<path d="M27.3058 13.6063L23.6596 11.7669C22.9945 11.4313 22.2092 11.9147 22.2092 12.6597L22.2092 16.3382C22.2092 17.0832 22.9945 17.5666 23.6596 17.2311L27.3057 15.3919C28.0385 15.0223 28.0386 13.976 27.3058 13.6063Z" fill="#363636"/>
<path d="M8.86876 2.9663L12.2848 5.20426C12.9079 5.61249 12.882 6.53429 12.2368 6.90676L9.05109 8.74604C8.40597 9.1185 7.59469 8.68015 7.55268 7.93642L7.32235 3.85917C7.27606 3.0397 8.1822 2.51651 8.86876 2.9663Z" fill="#363636"/>
<path d="M21.6765 25.14L21.4464 21.0626C21.4044 20.3188 20.5931 19.8804 19.948 20.2529L16.7622 22.0922C16.1171 22.4647 16.0911 23.3864 16.7142 23.7947L20.13 26.0328C20.8166 26.4826 21.7227 25.9594 21.6765 25.14Z" fill="#363636"/>
<path d="M21.676 3.85759L21.4459 7.93496C21.4039 8.67872 20.5926 9.11711 19.9475 8.74464L16.7618 6.90536C16.1166 6.5329 16.0906 5.61114 16.7137 5.20289L20.1295 2.9648C20.8161 2.51497 21.7222 3.03811 21.676 3.85759Z" fill="#363636"/>
<path d="M8.86925 26.0352L12.2853 23.7972C12.9084 23.389 12.8824 22.4672 12.2373 22.0947L9.05158 20.2554C8.40645 19.883 7.59518 20.3213 7.55317 21.065L7.32284 25.1423C7.27655 25.9618 8.18269 26.485 8.86925 26.0352Z" fill="#363636"/>
<circle cx="14.5022" cy="14.5002" r="4.88452" fill="#363636"/>
</g>
<defs>
<clipPath id="clip0_323_1077">
<rect width="29" height="29" fill="white"/>
</clipPath>
</defs>
</svg>
