<svg width="32" height="32" viewBox="0 0 32 32" fill="none" xmlns="http://www.w3.org/2000/svg">
<path d="M6.63074 2.92953C5.67219 2.78075 4.91594 3.54292 4.76716 4.50148L2.79415 11.7322C2.65552 12.6254 3.21695 13.4781 4.09235 13.7029L11.7547 14.8541C12.6943 15.095 13.4704 14.799 13.7114 13.8594C13.8875 13.173 13.2761 12.4261 12.3366 12.1851L8.67525 10.9703L7.23728 10.6025L7.53896 7.46472L7.65813 5.02691C7.80688 4.06854 7.589 3.07856 6.63074 2.92953Z" fill="#363636"/>
<path d="M25.3404 29.1629C26.2954 29.333 27.0684 28.5878 27.2384 27.6327L29.3714 20.4476C29.5298 19.5577 28.9874 18.6928 28.1172 18.4486L20.4823 17.1276C19.5483 16.8659 18.7658 17.1446 18.504 18.0786C18.3127 18.761 18.9074 19.5213 19.8413 19.783L23.4748 21.0788L24.9043 21.4784L24.533 24.6087L24.3598 27.0433C24.1898 27.9981 24.3856 28.9927 25.3404 29.1629Z" fill="#363636"/>
<path d="M6.65575 12.5346C5.76459 12.6291 4.92958 12.0344 4.74169 11.1385C4.56219 10.2821 5.03565 9.44317 5.8236 9.13347C5.84075 9.12348 5.86205 9.10977 5.8892 9.09319C6.02784 9.00852 6.20964 8.89093 6.4785 8.71797C6.99421 8.38622 7.81491 7.75477 8.69317 7.27445C10.4401 6.31908 12.584 5.39091 15.4011 5.00524C17.307 4.74438 19.8446 4.74275 22.2507 5.1411C24.6266 5.53454 27.1528 6.5181 28.7571 8.73173C29.3301 9.52231 29.347 10.4999 28.5564 11.0729C27.7658 11.6457 26.8779 11.4062 26.305 10.6157C25.4875 9.48785 23.7922 8.84161 21.829 8.51656C19.8955 8.19647 17.7684 8.29936 16.0638 8.53267C13.8318 8.83817 11.8327 9.70642 10.2917 10.5492C9.52588 10.968 8.88758 11.3717 8.39141 11.6909C8.15455 11.8433 7.9171 11.9979 7.7319 12.111C7.63826 12.1682 7.52857 12.2331 7.41769 12.2906C7.34564 12.3279 7.11841 12.4462 6.83415 12.5058L6.65575 12.5346Z" fill="#363636"/>
<path d="M26.2022 19.1285C27.0933 19.034 27.9283 19.6287 28.1162 20.5246C28.2957 21.381 27.8223 22.2199 27.0343 22.5296C27.0172 22.5396 26.9959 22.5533 26.9687 22.5699C26.8301 22.6546 26.6483 22.7721 26.3794 22.9451C25.8637 23.2769 25.043 23.9083 24.1647 24.3886C22.4178 25.344 20.274 26.2722 17.4569 26.6578C15.5509 26.9187 13.0133 26.9203 10.6072 26.522C8.23128 26.1285 5.70513 25.145 4.10079 22.9314C3.52782 22.1408 3.51096 21.1632 4.30154 20.5902C5.09211 20.0174 5.98 20.2568 6.55295 21.0474C7.37044 22.1752 9.06573 22.8215 11.0289 23.1465C12.9624 23.4666 15.0895 23.3637 16.7941 23.1304C19.0261 22.8249 21.0252 21.9567 22.5663 21.1139C23.332 20.6951 23.9703 20.2913 24.4665 19.9722C24.7034 19.8198 24.9408 19.6652 25.126 19.5521C25.2196 19.4949 25.3293 19.43 25.4402 19.3725C25.5123 19.3352 25.7395 19.2169 26.0238 19.1573L26.2022 19.1285Z" fill="#363636"/>
</svg>
