<svg width="26" height="26" viewBox="0 0 26 26" fill="none" xmlns="http://www.w3.org/2000/svg">
<path d="M12.9996 1.53125C13.7493 1.53125 14.3575 2.13899 14.3576 2.88872V11.6427H23.111C23.8607 11.6428 24.4683 12.2505 24.4685 13.0002C24.4685 13.7499 23.8607 14.3581 23.111 14.3582H14.3576V23.111C14.3575 23.8607 13.7493 24.4685 12.9996 24.4685C12.2499 24.4683 11.6422 23.8607 11.6421 23.111V14.3582H2.88872C2.13897 14.3581 1.53125 13.7499 1.53125 13.0002C1.53137 12.2505 2.13905 11.6428 2.88872 11.6427H11.6421V2.88872C11.6422 2.13907 12.2499 1.53137 12.9996 1.53125Z" fill="#363636"/>
</svg>
