<svg width="26" height="18" viewBox="0 0 26 18" fill="none" xmlns="http://www.w3.org/2000/svg">
<g clip-path="url(#clip0_323_1057)">
<path d="M13.0005 -0.0302734C15.783 -0.0300318 18.0386 2.22611 18.0386 5.00879V7.27832C19.4739 7.88557 20.4808 9.30735 20.481 10.9639V14.0303C20.4808 16.2393 18.69 18.0303 16.481 18.0303H9.51904C7.30999 18.0303 5.51919 16.2393 5.51904 14.0303V10.9648C5.51904 9.30815 6.52598 7.88565 7.96143 7.27832V5.00879C7.96143 2.22596 10.2177 -0.0302734 13.0005 -0.0302734ZM13.0005 2.54199C11.6383 2.54199 10.5337 3.64653 10.5337 5.00879V6.96484H15.4663V5.00879C15.4663 3.64667 14.3625 2.54223 13.0005 2.54199Z" fill="#363636"/>
</g>
<defs>
<clipPath id="clip0_323_1057">
<rect width="26" height="18" fill="white"/>
</clipPath>
</defs>
</svg>
