<svg width="23" height="23" viewBox="0 0 23 23" fill="none" xmlns="http://www.w3.org/2000/svg">
<path d="M13.5 19.5C13.2167 19.5 12.9792 19.4042 12.7875 19.2125C12.5958 19.0208 12.5 18.7833 12.5 18.5C12.5 18.2167 12.5958 17.9792 12.7875 17.7875C12.9792 17.5958 13.2167 17.5 13.5 17.5H15.1L12.625 15.025C12.425 14.825 12.3292 14.5875 12.3375 14.3125C12.3458 14.0375 12.45 13.8 12.65 13.6C12.85 13.4 13.0875 13.3 13.3625 13.3C13.6375 13.3 13.875 13.4 14.075 13.6L16.5 16.05V14.5C16.5 14.2167 16.5958 13.9792 16.7875 13.7875C16.9792 13.5958 17.2167 13.5 17.5 13.5C17.7833 13.5 18.0208 13.5958 18.2125 13.7875C18.4042 13.9792 18.5 14.2167 18.5 14.5V18.5C18.5 18.7833 18.4042 19.0208 18.2125 19.2125C18.0208 19.4042 17.7833 19.5 17.5 19.5H13.5ZM4.8 17.2C4.61667 17.0167 4.525 16.7833 4.525 16.5C4.525 16.2167 4.61667 15.9833 4.8 15.8L15.1 5.5H13.5C13.2167 5.5 12.9792 5.40417 12.7875 5.2125C12.5958 5.02083 12.5 4.78333 12.5 4.5C12.5 4.21667 12.5958 3.97917 12.7875 3.7875C12.9792 3.59583 13.2167 3.5 13.5 3.5H17.5C17.7833 3.5 18.0208 3.59583 18.2125 3.7875C18.4042 3.97917 18.5 4.21667 18.5 4.5V8.5C18.5 8.78333 18.4042 9.02083 18.2125 9.2125C18.0208 9.40417 17.7833 9.5 17.5 9.5C17.2167 9.5 16.9792 9.40417 16.7875 9.2125C16.5958 9.02083 16.5 8.78333 16.5 8.5V6.9L6.2 17.2C6.01667 17.3833 5.78333 17.475 5.5 17.475C5.21667 17.475 4.98333 17.3833 4.8 17.2ZM4.775 7.2C4.59167 7.01667 4.5 6.78333 4.5 6.5C4.5 6.21667 4.59167 5.98333 4.775 5.8C4.95833 5.61667 5.1875 5.525 5.4625 5.525C5.7375 5.525 5.975 5.61667 6.175 5.8L8.375 7.975C8.55833 8.15833 8.65417 8.3875 8.6625 8.6625C8.67083 8.9375 8.575 9.175 8.375 9.375C8.19167 9.55833 7.95833 9.65 7.675 9.65C7.39167 9.65 7.15833 9.55833 6.975 9.375L4.775 7.2Z" fill="#363636"/>
</svg>
