<svg width="23" height="23" viewBox="0 0 23 23" fill="none" xmlns="http://www.w3.org/2000/svg">
<rect x="10.071" y="9.70336" width="9.90767" height="9.90767" rx="3.59781" stroke="#363636" stroke-width="1.95067"/>
<path d="M17.1729 6.98642C17.1727 4.53988 15.2514 2.54188 12.8353 2.41929L12.6001 2.41357H6.6196C4.09416 2.41374 2.04692 4.46098 2.04676 6.98642L2.04622 14.0291L2.05193 14.2644C2.17452 16.6805 4.17252 18.6018 6.61906 18.602H7.80805C8.12058 18.602 8.35244 18.3121 8.28382 18.0072L8.06431 17.0319C8.01423 16.8094 7.81662 16.6513 7.58854 16.6513H6.61906C5.17095 16.6511 3.99705 15.4772 3.99689 14.0291L3.99743 6.98642C3.99759 5.53831 5.17149 4.36441 6.6196 4.36425H12.6001L12.8677 4.37758C14.1901 4.51178 15.2221 5.62866 15.2222 6.98642C15.2219 7.25446 15.4391 7.47191 15.7072 7.47191H16.6869C16.9551 7.47191 17.1726 7.25464 17.1729 6.98642Z" fill="#363636"/>
</svg>
