<svg width="23" height="23" viewBox="0 0 23 23" fill="none" xmlns="http://www.w3.org/2000/svg">
<path d="M11.4997 4.92822C12.1667 4.92822 12.7077 5.46884 12.7078 6.13577V10.2927H16.8642C17.5311 10.2928 18.0717 10.8334 18.0718 11.5003C18.0718 12.1672 17.5312 12.7082 16.8642 12.7083H12.7078V16.8642C12.7077 17.5312 12.1667 18.0718 11.4997 18.0718C10.8329 18.0717 10.2923 17.5311 10.2922 16.8642V12.7083H6.13577C5.46883 12.7082 4.92822 12.1672 4.92822 11.5003C4.92833 10.8334 5.4689 10.2928 6.13577 10.2927H10.2922V6.13577C10.2923 5.46891 10.8329 4.92833 11.4997 4.92822Z" fill="#363636"/>
</svg>
