<svg width="19" height="19" viewBox="0 0 19 19" fill="none" xmlns="http://www.w3.org/2000/svg">
<path d="M9.49968 1.46191C10.3154 1.46191 10.9772 2.12316 10.9773 2.93889V8.02334H16.0611C16.8768 8.02348 17.538 8.68467 17.5381 9.50032C17.5381 10.3161 16.8768 10.9778 16.0611 10.9779H10.9773V16.0611C10.9772 16.8769 10.3155 17.5381 9.49968 17.5381C8.68401 17.538 8.02281 16.8768 8.0227 16.0611V10.9779H2.93889C2.12314 10.9778 1.46191 10.3161 1.46191 9.50032C1.46205 8.68466 2.12322 8.02346 2.93889 8.02334H8.0227V2.93889C8.02283 2.12324 8.68403 1.46205 9.49968 1.46191Z" fill="#363636"/>
</svg>
