<svg width="22" height="22" viewBox="0 0 22 22" fill="none" xmlns="http://www.w3.org/2000/svg">
<path d="M18.5288 9.65039C19.2744 9.65039 20.1763 10.2544 20.1763 11C20.1763 11.7456 19.2744 12.3496 18.5288 12.3496L3.37539 12.3496C2.6298 12.3496 1.82373 11.7456 1.82373 11C1.82373 10.2544 2.6298 9.65039 3.37539 9.65039L18.5288 9.65039Z" fill="#363636"/>
<path d="M17.0288 1.25684C17.7744 1.25684 18.6763 1.86086 18.6763 2.60645C18.6763 3.35203 17.7744 3.95606 17.0288 3.95606L4.87539 3.95605C4.1298 3.95605 3.32373 3.35203 3.32373 2.60645C3.32373 1.86086 4.1298 1.25684 4.87539 1.25684L17.0288 1.25684Z" fill="#363636"/>
<path d="M17.0288 18.0439C17.7744 18.0439 18.6763 18.648 18.6763 19.3936C18.6763 20.1391 17.7744 20.7432 17.0288 20.7432L4.87539 20.7432C4.1298 20.7432 3.32373 20.1391 3.32373 19.3936C3.32373 18.648 4.1298 18.0439 4.87539 18.0439L17.0288 18.0439Z" fill="#363636"/>
</svg>
