<svg width="23" height="23" viewBox="0 0 23 23" fill="none" xmlns="http://www.w3.org/2000/svg">
<path d="M16.2248 3.1832C15.9474 2.53261 15.2761 2.12992 14.6255 2.40727C13.9752 2.68475 13.9991 3.42343 14.2764 4.0739L15.1807 6.97135C12.4958 6.01307 10.1481 6.13333 8.25559 7.02937C5.69667 8.24106 4.24277 10.5501 4.04368 12.9046C3.89907 14.6159 4.25219 16.0613 4.99111 17.2296C5.72235 18.3855 6.85163 19.3292 7.966 19.8558C10.1526 20.889 12.7693 20.7895 14.4796 20.4316C15.1719 20.2868 15.5617 19.8471 15.4169 19.1549C15.2719 18.4627 14.7413 18.1548 14.0491 18.2996C12.7996 18.5612 10.4511 18.1843 8.84207 17.4241C8.05872 17.054 7.42844 16.5473 7.01424 15.8924C6.60779 15.2496 6.35179 14.3744 6.45498 13.1532C6.5857 11.6064 7.70537 10.1241 9.35209 9.34443C10.6242 8.74217 12.4993 8.57247 15.0077 9.65257L11.5765 11.9231C10.9559 12.2622 10.658 12.8998 10.9058 13.3533C11.2449 13.9739 11.8465 14.0436 12.4671 13.7045L18.3222 10.7601C18.9004 10.4439 19.1439 9.74056 18.8854 9.13433L16.2248 3.1832Z" fill="#363636"/>
</svg>
