<svg width="23" height="23" viewBox="0 0 23 23" fill="none" xmlns="http://www.w3.org/2000/svg">
<path d="M6.77525 3.1832C7.0526 2.53261 7.72391 2.12992 8.37451 2.40727C9.02484 2.68475 9.00093 3.42343 8.72364 4.0739L7.81926 6.97135C10.5042 6.01307 12.8519 6.13333 14.7444 7.02937C17.3033 8.24106 18.7572 10.5501 18.9563 12.9046C19.1009 14.6159 18.7478 16.0613 18.0089 17.2296C17.2776 18.3855 16.1484 19.3292 15.034 19.8558C12.8474 20.889 10.2307 20.7895 8.52039 20.4316C7.82814 20.2868 7.43826 19.8471 7.58315 19.1549C7.72807 18.4627 8.25869 18.1548 8.95088 18.2996C10.2004 18.5612 12.5489 18.1843 14.1579 17.4241C14.9413 17.054 15.5716 16.5473 15.9858 15.8924C16.3922 15.2496 16.6482 14.3744 16.545 13.1532C16.4143 11.6064 15.2946 10.1241 13.6479 9.34443C12.3758 8.74217 10.5007 8.57247 7.99233 9.65257L11.4235 11.9231C12.0441 12.2622 12.342 12.8998 12.0942 13.3533C11.7551 13.9739 11.1535 14.0436 10.5329 13.7045L4.67783 10.7601C4.09965 10.4439 3.85613 9.74056 4.11457 9.13433L6.77525 3.1832Z" fill="#363636"/>
</svg>
