<svg width="26" height="18" viewBox="0 0 26 18" fill="none" xmlns="http://www.w3.org/2000/svg">
<g clip-path="url(#clip0_323_1063)">
<path d="M16.481 6.96484C18.6899 6.96484 20.4807 8.75495 20.481 10.9639V14.0303C20.4808 16.2393 18.69 18.0303 16.481 18.0303H9.51904C7.30999 18.0303 5.51919 16.2393 5.51904 14.0303V10.9648C5.51904 8.7557 7.3099 6.96484 9.51904 6.96484H16.481Z" fill="#363636"/>
<path d="M10.5574 4.97866C10.5574 2.19591 8.30143 -0.0600229 5.5187 -0.0600586H5.0381C2.52089 -0.0600586 0.47998 1.98085 0.47998 4.49806C0.480146 5.20819 1.05587 5.78411 1.76603 5.78411C2.4762 5.78411 3.05192 5.20819 3.05209 4.49806C3.05209 3.40139 3.94142 2.51205 5.0381 2.51205H5.5187C6.8809 2.51208 7.9853 3.61644 7.9853 4.97866V10.1706L10.5574 10.0332V4.97866Z" fill="#363636"/>
</g>
<defs>
<clipPath id="clip0_323_1063">
<rect width="26" height="18" fill="white"/>
</clipPath>
</defs>
</svg>
